<?xml version="1.0" standalone="no"?><!DOCTYPE svg PUBLIC "-//W3C//DTD SVG 1.1//EN" "http://www.w3.org/Graphics/SVG/1.1/DTD/svg11.dtd"><svg t="1572163748956" class="icon" viewBox="0 0 1024 1024" version="1.1" xmlns="http://www.w3.org/2000/svg" p-id="2565" width="128" height="128" xmlns:xlink="http://www.w3.org/1999/xlink"><defs><style type="text/css"></style></defs><path d="M512.000592 921.089149c-58.963104 0-116.182019-11.55617-170.065809-34.347404-52.0277-22.006713-98.746202-53.501868-138.857704-93.61337s-71.606656-86.828788-93.61337-138.856487c-22.791234-53.885006-34.347404-111.103921-34.347404-170.065809 0-58.963104 11.55617-116.182019 34.347404-170.065809 22.006713-52.0277 53.501868-98.747418 93.61337-138.857704s86.828788-71.606656 138.857704-93.612154c53.885006-22.791234 111.103921-34.347404 170.065809-34.347404 58.963104 0 116.180803 11.55617 170.065809 34.347404 52.0277 22.006713 98.747418 53.501868 138.857704 93.612154 40.111502 40.111502 71.606656 86.830004 93.612154 138.857704 22.791234 53.885006 34.347404 111.102705 34.347404 170.065809s-11.55617 116.182019-34.347404 170.065809c-22.005497 52.0277-53.500652 98.746202-93.612154 138.856487s-86.830004 71.606656-138.857704 93.61337C628.181395 909.534196 570.963697 921.089149 512.000592 921.089149zM512.000592 120.300448c-97.202703 0-188.586575 37.852812-257.320306 106.585326-68.732514 68.732514-106.585326 160.117602-106.585326 257.320306s37.852812 188.586575 106.585326 257.320306c68.732514 68.732514 160.117602 106.585326 257.320306 106.585326s188.586575-37.852812 257.319089-106.585326c68.732514-68.73373 106.585326-160.117602 106.585326-257.320306s-37.852812-188.587792-106.585326-257.320306S609.203296 120.300448 512.000592 120.300448z" p-id="2566"></path><path d="M280.984911 298.638277l47.499032-47.499032 70.499441 70.499441-47.499032 47.499032-70.499441-70.499441Z" p-id="2567"></path><path d="M276.191536 427.439322l47.499032-47.499032 70.499441 70.499441-47.499032 47.499032-70.499441-70.499441Z" p-id="2568"></path><path d="M331.637495 524.853974 393.635295 550.712744 323.171971 717.273145 261.174171 691.414375Z" p-id="2569"></path><path d="M744.578701 440.665797l0-56.233703L616.012204 384.432094l0-60.249961c40.166235-1.318481 79.642823-4.016259 118.491793-8.033734l-8.032517-54.224357c-96.399938 6.715253-198.165024 12.049992-305.266066 16.066251 4.016259 20.083726 6.683629 36.149977 8.032517 48.199969 0 2.698994 0 4.707123 0 6.025604 13.367257-1.317265 33.450983-2.008129 60.249961-2.008129 26.767354-1.318481 46.849864-2.008129 60.249961-2.008129l0 56.233703L421.171358 384.433311l0 56.233703 128.566497 0 0 60.249961-116.482448 0 0 214.890515 64.26622 0 0-24.098768 168.698676 0 0 22.090639 66.274349 0L732.494652 500.914542l-116.482448 0 0-60.249961L744.578701 440.664581zM666.219086 559.156374l0 78.324342L497.520411 637.480716l0-78.324342L666.219086 559.156374z" p-id="2570"></path></svg>