<?xml version="1.0" standalone="no"?><!DOCTYPE svg PUBLIC "-//W3C//DTD SVG 1.1//EN" "http://www.w3.org/Graphics/SVG/1.1/DTD/svg11.dtd"><svg t="1575298300457" class="icon" viewBox="0 0 1024 1024" version="1.1" xmlns="http://www.w3.org/2000/svg" p-id="3318" xmlns:xlink="http://www.w3.org/1999/xlink" width="24" height="24"><defs><style type="text/css"></style></defs><path d="M881.984 370.193067H141.994667c-47.149227 0-85.37856 38.229333-85.37856 85.37856v113.848746c0 47.148373 38.229333 85.378133 85.37856 85.378134h739.989333c47.159893 0 85.399893-38.229333 85.399893-85.378134v-113.848746c0-47.149227-38.240427-85.37856-85.399893-85.37856zM173.474133 439.44448h677.038934c25.951573 0 47.181653 21.23008 47.181653 47.181227v51.739733c0 25.951573-21.23008 47.181653-47.181653 47.181653H173.474133c-25.951573 0-47.181653-21.23008-47.181653-47.181653v-51.739733c0-25.951147 21.23008-47.181227 47.181653-47.181227z m708.509867 269.252267H141.994667c-47.149227 0-85.37856 38.229333-85.37856 85.37856v113.84832c0 47.149227 38.229333 85.37856 85.37856 85.37856h739.989333c47.159893 0 85.399893-38.229333 85.399893-85.37856v-113.84832c0-47.149227-38.240427-85.37856-85.399893-85.37856zM173.474133 777.94816h677.038934c25.951573 0 47.181653 21.23008 47.181653 47.181227v51.739733c0 25.951573-21.23008 47.181653-47.181653 47.181653H173.474133c-25.951573 0-47.181653-21.23008-47.181653-47.181653v-51.739733c0-25.951147 21.23008-47.181227 47.181653-47.181227zM881.984 30.69696H141.994667c-47.149227 0-85.37856 38.229333-85.37856 85.378133v113.848747c0 47.148373 38.229333 85.378133 85.37856 85.378133h739.989333c47.159893 0 85.399893-38.229333 85.399893-85.378133V116.075093c0-47.149227-38.240427-85.378133-85.399893-85.378133zM173.474133 99.947947h677.038934c25.951573 0 47.181653 21.23008 47.181653 47.181226v51.739734c0 25.951573-21.23008 47.181653-47.181653 47.181653H173.474133c-25.951573 0-47.181653-21.23008-47.181653-47.181653V147.129173c0-25.951147 21.23008-47.181227 47.181653-47.181226z" p-id="3319"></path></svg>