<?xml version="1.0" standalone="no"?><!DOCTYPE svg PUBLIC "-//W3C//DTD SVG 1.1//EN" "http://www.w3.org/Graphics/SVG/1.1/DTD/svg11.dtd"><svg t="1589338648458" class="icon" viewBox="0 0 1034 1024" version="1.1" xmlns="http://www.w3.org/2000/svg" p-id="2400" xmlns:xlink="http://www.w3.org/1999/xlink" width="258.5" height="256"><defs><style type="text/css"></style></defs><path d="M1034.229134 223.72035V121.44819A120.808989 120.808989 0 0 0 914.059346 0H119.532504A120.808989 120.808989 0 0 0 0.001918 121.44819v557.383271a120.808989 120.808989 0 0 0 119.530586 121.448189h338.77653v105.468165H211.577448a59.445693 59.445693 0 0 0 0 118.252185h611.076155a59.445693 59.445693 0 0 0 0-118.252185H575.282816v-105.468165h338.77653a120.808989 120.808989 0 0 0 120.169788-121.448189V594.456929a58.806492 58.806492 0 1 0-117.612984 0v86.931336H119.532504V121.44819h797.083646v102.27216a58.806492 58.806492 0 1 0 117.612984 0z" p-id="2401"></path><path d="M191.762217 575.280899a47.940075 47.940075 0 0 1-37.073658-17.897628 47.940075 47.940075 0 0 1 7.031211-63.9201l216.689139-182.172285A47.300874 47.300874 0 0 1 447.442617 319.600499l116.973783 134.871411 231.390761-231.390761a47.940075 47.940075 0 1 1 67.755306 67.755305L596.376449 558.661673a50.496879 50.496879 0 0 1-35.795255 16.619226 47.940075 47.940075 0 0 1-34.516854-16.619226L402.698547 414.841448l-180.893883 147.01623A47.940075 47.940075 0 0 1 191.762217 575.280899z" p-id="2402"></path></svg>