<?xml version="1.0" standalone="no"?><!DOCTYPE svg PUBLIC "-//W3C//DTD SVG 1.1//EN" "http://www.w3.org/Graphics/SVG/1.1/DTD/svg11.dtd"><svg t="1572163790943" class="icon" viewBox="0 0 1024 1024" version="1.1" xmlns="http://www.w3.org/2000/svg" p-id="3365" xmlns:xlink="http://www.w3.org/1999/xlink" width="128" height="128"><defs><style type="text/css"></style></defs><path d="M959.872 824.128a274.944 274.944 0 0 0-111.36-207.936V386.688c0-132.544-96.576-244.032-224.128-270.4v-5.248C624.384 50.56 573.888 1.088 512.192 1.088 450.56 1.088 400 50.56 400 111.04v5.248C272.448 142.656 176 254.144 176 386.688v229.504a274.944 274.944 0 0 0-111.36 207.936h111.36v0.768h672.576v-0.768h111.36z m-471.36 199.36h27.84c73.024 0 133.76-54.08 142.528-123.328H365.824c8.832 69.248 69.504 123.328 142.528 123.328h-19.84z" p-id="3366"></path></svg>