<?xml version="1.0" standalone="no"?><!DOCTYPE svg PUBLIC "-//W3C//DTD SVG 1.1//EN" "http://www.w3.org/Graphics/SVG/1.1/DTD/svg11.dtd"><svg t="1569227619256" class="icon" viewBox="0 0 1251 1024" version="1.1" xmlns="http://www.w3.org/2000/svg" p-id="6308" xmlns:xlink="http://www.w3.org/1999/xlink" width="156.375" height="128"><defs><style type="text/css"></style></defs><path d="M1137.777778 85.333333h-512L545.223111 0H109.056C42.496 0 0 58.709333 0 119.409778v802.702222C0 982.812444 42.496 1024 109.056 1024h1033.500444c66.56 0 108.999111-41.187556 108.999112-101.831111V194.275556C1251.555556 133.688889 1204.337778 85.333333 1137.777778 85.333333l4.778666-14.677333L1137.777778 85.333333zM1194.666667 910.222222c0 22.016-32.768 56.888889-56.888889 56.888889H113.777778c-24.064 0-56.888889-34.872889-56.888889-56.888889V113.777778c0-22.016 32.824889-56.888889 56.888889-56.888889h398.222222l287.630222 225.564444L1194.666667 284.444444v625.777778zM824.888889 227.555556l-97.962667-86.357334h415.630222c24.064 0 52.110222 35.953778 52.110223 57.912889V227.555556h-369.777778z"  p-id="6309"></path></svg>