<?xml version="1.0" standalone="no"?><!DOCTYPE svg PUBLIC "-//W3C//DTD SVG 1.1//EN" "http://www.w3.org/Graphics/SVG/1.1/DTD/svg11.dtd"><svg t="1572163867444" class="icon" viewBox="0 0 1024 1024" version="1.1" xmlns="http://www.w3.org/2000/svg" p-id="3937" xmlns:xlink="http://www.w3.org/1999/xlink" width="128" height="128"><defs><style type="text/css"></style></defs><path d="M415.386686 307.285331C360.743434 274.986081 306.131786 242.592019 251.520138 210.292769 280.690596 151.541002 316.276658 92.631215 374.42795 33.784636a51.19842 51.19842 0 0 1 28.253943-15.517545h12.357149l8.722694 0.410851c28.696398 4.930218 56.476282 44.02432 70.887688 66.11549 11.345823 20.005308 22.217586 40.263449 32.61529 60.742817l-111.909632 161.780686z m93.263294-231.562236c26.262893 46.521033 50.977192 94.685473 72.436283 146.136724l-86.84769 51.51446 251.85198 24.903922 105.999691-237.408969-87.669393 52.020123c-23.860992-49.997469-54.295608-91.588284-100.374186-112.889355l-248.217524 1.232555c32.773309-1.295762 63.271134 29.296874 92.789235 74.49054z m192.468134 338.731274l1.011326-1.422179 0.063208 3.571248 64.661708 142.059813c26.168081 0.979723 52.367766 1.137743 78.504244 0.790099 27.147804-2.338693 77.556125-8.69109 93.263294-35.428042 0.568871-0.884911 1.011327-1.83303 1.548595-2.717941l6.384-11.851486c0-5.277862-0.726891-10.618932-2.243881-15.70717-21.237863-81.095769-53.537113-141.870189-88.870344-196.955896-54.137588 33.310577-108.211969 66.494738-162.317953 99.868523l7.995803 17.824635z m144.967377 161.938705a1268.077405 1268.077405 0 0 1-158.873121-6.447208l-1.074535-103.376563-144.366902 214.274868 148.696645 211.714948-1.011327-104.324682c53.884757 3.097188 103.91383-3.950495 144.619734-34.827567 40.200241-74.616956 80.368878-149.233913 120.600723-223.787661-15.07509 30.055369-55.939014 42.380914-108.591217 46.805469z m-527.027684 14.885467a1523.437425 1523.437425 0 0 0-32.267646 68.454183c-9.765625 26.326101-25.91525 75.944323-9.291565 102.0808l1.769822 2.623129 7.869386 11.345823c6.605228 4.835406 13.747724 7.616555 21.269467 8.659486 80.14765 15.359526 147.211259 11.377427 210.640413 2.243881a201117.822289 201117.822289 0 0 0-17.445388-194.11154l-182.512885-1.295762z m-47.469152 61.754143c21.743526-48.828123 45.69933-97.37181 74.048085-145.157001l90.924601 43.613469-125.214901-226.821642-249.228851 47.184717 91.683096 43.929508c-25.946853 49.017746-41.337983 98.509552-31.793586 149.676368 47.911608 69.655134 95.791611 139.24706 143.79803 208.744175-19.815685-26.926576-13.084041-70.255609 5.783526-121.201198z m0 0" p-id="3938"></path></svg>