<?xml version="1.0" standalone="no"?><!DOCTYPE svg PUBLIC "-//W3C//DTD SVG 1.1//EN" "http://www.w3.org/Graphics/SVG/1.1/DTD/svg11.dtd"><svg t="1569227745130" class="icon" viewBox="0 0 1026 1024" version="1.1" xmlns="http://www.w3.org/2000/svg" p-id="8138" xmlns:xlink="http://www.w3.org/1999/xlink" width="128.25" height="128"><defs><style type="text/css"></style></defs><path d="M1022.656 651.008c1.408 8.832 1.088 19.392-1.152 31.872-2.176 12.416-5.888 25.152-11.008 37.952s-11.392 24.384-18.688 34.624-15.36 17.6-24.192 22.016c-8.832 4.416-16.512 6.592-23.04 6.592-6.656 0-13.952-1.408-22.016-4.352-7.36-2.176-16.512-4.16-27.52-6.016-11.008-1.856-22.208-2.24-33.536-1.152s-22.656 3.456-34.048 7.104-21.12 9.92-29.184 18.688c-17.536 18.368-27.84 39.232-30.72 62.656s0.384 45.824 9.856 67.072c7.296 14.656 6.272 29.376-3.264 44.032-4.416 5.888-11.456 11.968-20.928 18.112-9.472 6.272-20.032 11.968-31.296 17.088-11.392 5.12-23.296 9.216-35.776 12.096-12.48 2.944-23.488 4.352-33.024 4.352-6.592 0-12.8-2.56-18.688-7.68s-9.792-10.624-12.032-16.512h-1.088c-8.064-22.72-21.824-42.304-41.28-58.816s-41.984-24.768-67.648-24.768c-24.96 0-47.488 8.256-67.648 24.768-20.16 16.512-34.304 35.712-42.368 57.664-3.648 8.832-9.152 15.232-16.512 19.264-7.296 4.032-15.36 6.08-24.192 6.08-10.24 0-21.824-1.792-34.624-5.504a330.872 330.872 0 0 1-38.528-13.76c-12.8-5.504-24.384-11.904-34.688-19.264-10.24-7.296-17.92-14.656-23.04-22.016-3.712-5.12-5.696-11.136-6.08-18.112-0.384-6.912 2.368-16.704 8.256-29.12 8.064-16.896 11.2-36.096 9.344-57.728s-11.2-41.536-28.032-59.968c-10.304-11.008-22.72-18.112-37.376-21.44-14.656-3.264-28.608-4.544-41.792-3.84-15.36 0.704-31.168 3.648-47.232 8.832-10.304 2.88-20.544 2.112-30.784-2.24-8.064-2.944-15.616-9.664-22.528-20.288-6.976-10.624-13.184-22.4-18.688-35.2A216.298 216.298 0 0 1 3.2 684.48c-2.944-13.568-3.712-24.704-2.176-33.472 2.304-16.128 9.6-26.368 22.08-30.848 22.016-8.832 41.792-23.232 59.392-43.456 17.6-20.16 26.432-42.688 26.432-67.648 0-25.664-8.768-48-26.432-67.072-17.6-19.008-37.376-32.896-59.392-41.728-6.592-2.176-12.096-7.488-16.512-15.936C2.24 375.872 0 367.232 0 358.528c0-9.536 1.472-20.16 4.416-31.936S11.2 303.488 16 292.48c4.736-11.008 10.24-21.056 16.448-30.272 6.208-9.088 12.992-15.872 20.352-20.288 5.824-3.648 11.52-5.12 17.024-4.352 5.44 0.704 11.52 2.176 18.176 4.352 21.952 8.768 44.864 11.52 68.736 8.256 23.808-3.328 44.928-13.696 63.232-31.36 8.832-8.768 15.232-19.584 19.2-32.448 4.032-12.8 6.592-25.472 7.68-37.952 1.088-12.416 1.088-23.808 0-34.048-1.088-10.304-1.984-17.6-2.752-22.016-1.472-4.416-2.752-9.536-3.84-15.424-1.088-5.824-0.512-10.944 1.664-15.36 4.352-10.24 12.224-19.2 23.616-26.944 11.392-7.68 23.616-14.08 36.864-19.2S328.448 6.4 340.928 3.84C353.344 1.28 363.264 0 370.624 0c9.536 0 17.024 3.136 22.528 9.344 5.504 6.272 9.344 12.672 11.52 19.264 8.064 19.776 21.312 37.248 39.616 52.224 18.368 14.976 40 22.528 64.896 22.528 25.664 0 48.384-7.168 68.16-21.44 19.84-14.272 33.728-32.448 41.728-54.464 3.008-5.824 7.552-11.84 13.824-18.112C639.04 3.136 645.504 0 652.032 0c10.24 0 21.504 1.472 33.536 4.352 12.032 2.944 24 6.976 35.776 12.096 11.712 5.12 22.592 11.712 32.448 19.776 9.856 8.064 17.728 16.896 23.616 26.432 3.712 5.824 4.8 12.224 3.328 19.2-1.408 6.976-2.944 11.968-4.416 14.848-9.472 21.248-12.416 43.648-8.768 67.072 3.648 23.488 14.336 44.032 31.872 61.568 17.6 17.6 39.232 27.328 64.896 29.184s49.472-2.368 71.488-12.672c5.824-3.648 12.992-5.12 21.44-4.352 8.448 0.704 15.552 4.032 21.44 9.856 11.008 10.304 20.672 25.856 29.12 46.72 8.448 20.928 14.144 41.984 17.088 63.232 1.408 12.48-0.576 22.208-6.08 29.184s-11.2 11.52-17.024 13.76c-22.72 8.064-42.176 22.144-58.304 42.304s-24.192 43.072-24.192 68.736c0 24.96 6.72 46.72 20.288 65.408s31.36 32.064 53.376 40.128c5.12 2.944 9.472 5.888 13.184 8.832 8.128 6.656 13.632 15.04 16.512 25.344zM511.36 749.952c32.96 0 64.128-6.272 93.44-18.688s54.784-29.696 76.416-51.712 38.656-47.424 51.136-76.352c12.416-28.992 18.688-59.968 18.688-92.992 0-32.96-6.272-64-18.688-92.928-12.48-28.992-29.504-54.272-51.136-75.904s-47.104-38.656-76.416-51.072c-29.312-12.48-60.48-18.688-93.44-18.688-33.024 0-64 6.208-92.928 18.688-28.992 12.416-54.272 29.504-75.84 51.136-21.696 21.632-38.72 46.912-51.2 75.904-12.416 28.928-18.688 59.904-18.688 92.864 0 33.024 6.272 64 18.688 92.992 12.48 28.928 29.504 54.4 51.136 76.352 21.632 22.016 46.848 39.232 75.84 51.712s59.968 18.688 92.992 18.688z" p-id="8139"></path></svg>