<?xml version="1.0" standalone="no"?><!DOCTYPE svg PUBLIC "-//W3C//DTD SVG 1.1//EN" "http://www.w3.org/Graphics/SVG/1.1/DTD/svg11.dtd"><svg t="1572163981748" class="icon" viewBox="0 0 1024 1024" version="1.1" xmlns="http://www.w3.org/2000/svg" p-id="4684" xmlns:xlink="http://www.w3.org/1999/xlink" width="128" height="128"><defs><style type="text/css"></style></defs><path d="M316.2 975.4c62 26.2 127.9 39.5 195.8 39.5s133.8-13.3 195.8-39.5c59.9-25.3 113.7-61.6 159.9-107.8 46.2-46.2 82.5-100 107.8-159.9 26.2-62 39.5-127.9 39.5-195.8 0-92.5-25.7-183.2-74.4-262.4 0 0-4.4-7.6-5.9-10.1-1.7-2.8-7.2-11-7.2-11C833.8 91 678.8 9 512 9c-67.9 0-133.8 13.3-195.8 39.5-59.9 25.3-113.7 61.6-159.9 107.8-46.2 46.2-82.5 100-107.8 159.9C22.3 378.2 9 444.1 9 512s13.3 133.8 39.5 195.8c25.3 59.9 61.6 113.7 107.8 159.9 46.2 46.1 100 82.4 159.9 107.7z m54-239.8c-1.2 1.2-2.4 2.7-3.3 4.6-7.7 8.8-11.1 19.7-9.6 30.7 2.6 19.8 19.1 34.2 39.3 34.2h4.2l212.3-28.3c21.5-2.6 36.8-22.5 34.1-44.3-2.6-21.5-22.5-36.9-44.3-34.2l-96.6 13.1 386.2-386.2c28.6 58.2 43.6 122.4 43.6 186.9 0 233.9-190.3 424.2-424.2 424.2-68.7 0-136.9-16.9-197.3-48.8-54.7-28.9-103-70.1-140.4-119.6l479.4-479.4c0.9-0.9 1.6-1.8 2.2-2.7 8.8-8.8 12.9-20.6 11.3-32.6-1.3-10.6-6.7-19.9-15.2-26.3-8.3-6.3-18.7-9.1-29.1-7.8l-211.6 28.2c-10.5 1.3-19.8 6.6-26.2 15.1-6.4 8.5-9 19-7.4 29.6 2.7 19.7 18.9 34 38.7 34h4.3l96.8-13.1-386 386C102.8 640.8 87.8 576.6 87.8 512 87.8 278.1 278.1 87.8 512 87.8c68.7 0 136.9 16.9 197.3 48.8 54.7 28.9 103 70.1 140.4 119.6L370.2 735.6z m570.3-486s-4.4-7.6-5.9-10.1c-1.7-2.8-7.2-11-7.2-11" p-id="4685"></path></svg>